<?xml version="1.0" standalone="no"?>
<!DOCTYPE svg PUBLIC "-//W3C//DTD SVG 20010904//EN"
 "http://www.w3.org/TR/2001/REC-SVG-20010904/DTD/svg10.dtd">
<svg version="1.0" xmlns="http://www.w3.org/2000/svg"
 width="1024.000000pt" height="1024.000000pt" viewBox="0 0 1024.000000 1024.000000"
 preserveAspectRatio="xMidYMid meet">
<metadata>
Created by potrace 1.14, written by Peter Selinger 2001-2017
</metadata>
<g transform="translate(0.000000,1024.000000) scale(0.100000,-0.100000)"
fill="#000000" stroke="none">
<path d="M9071 7594 c0 -11 3 -14 6 -6 3 7 2 16 -1 19 -3 4 -6 -2 -5 -13z"/>
<path d="M4770 7521 c-119 -36 -192 -139 -192 -271 -2 -215 219 -347 405 -242
63 35 76 64 76 173 1 97 -6 104 -106 104 -83 0 -103 -13 -103 -68 0 -24 6 -31
40 -45 44 -19 49 -31 22 -55 -23 -21 -93 -22 -130 -3 -67 34 -93 151 -49 217
34 52 80 72 147 63 92 -11 122 -9 136 11 32 43 1 96 -67 115 -39 12 -143 12
-179 1z"/>
<path d="M5137 7512 c-15 -16 -17 -49 -17 -258 0 -228 1 -241 20 -262 26 -27
64 -28 90 -2 19 19 20 33 20 264 0 242 0 245 -22 260 -30 21 -71 20 -91 -2z"/>
<path d="M5315 7505 c-29 -28 -31 -51 -9 -83 12 -18 25 -22 68 -22 l53 0 7
-92 c3 -50 6 -139 6 -198 0 -91 3 -109 18 -123 23 -21 62 -22 88 -3 17 13 19
30 22 214 l3 199 57 2 c65 1 82 15 82 67 0 57 -22 64 -208 64 -160 0 -163 0
-187 -25z"/>
<path d="M3202 7463 c-18 -2 -30 -7 -28 -11 2 -4 -7 -8 -21 -8 -14 -1 -41 -19
-63 -41 -78 -80 -79 -200 -3 -280 19 -21 32 -31 28 -23 -4 8 2 5 12 -7 33 -40
62 -43 351 -40 269 2 278 3 309 25 17 12 34 22 38 22 20 0 72 89 76 131 5 53
-2 98 -17 113 -8 9 -12 16 -8 16 4 0 -5 14 -21 30 -16 17 -37 30 -47 30 -10 0
-21 7 -24 15 -4 8 -14 15 -24 15 -11 0 -22 5 -25 10 -3 6 -18 10 -33 9 -24 0
-25 -1 -7 -9 12 -6 -70 -9 -218 -7 -131 1 -230 5 -220 9 16 6 16 6 -2 6 -11
-1 -35 -3 -53 -5z m652 -89 c5 -14 4 -15 -9 -4 -17 14 -19 20 -6 20 5 0 12 -7
15 -16z"/>
<path d="M9092 7430 c0 -19 2 -27 5 -17 2 9 2 25 0 35 -3 9 -5 1 -5 -18z"/>
<path d="M6455 7160 c-3 -5 -1 -10 4 -10 6 0 11 5 11 10 0 6 -2 10 -4 10 -3 0
-8 -4 -11 -10z"/>
<path d="M6538 7163 c34 -2 90 -2 125 0 34 2 6 3 -63 3 -69 0 -97 -1 -62 -3z"/>
<path d="M6456 7117 c3 -10 9 -15 12 -12 3 3 0 11 -7 18 -10 9 -11 8 -5 -6z"/>
<path d="M1123 7080 c0 -25 2 -35 4 -22 2 12 2 32 0 45 -2 12 -4 2 -4 -23z"/>
<path d="M2662 6928 c-1 -146 -5 -198 -14 -201 -10 -4 -10 -6 0 -6 9 -1 12
-64 10 -283 0 -156 -4 -265 -8 -243 -6 31 -7 26 -5 -25 2 -36 1 -57 -2 -47 -2
9 -10 17 -18 17 -9 0 -15 26 -20 90 -6 79 -9 90 -26 90 -17 0 -19 -8 -19 -90
l0 -90 -40 0 -40 0 0 90 0 90 -200 0 -200 0 0 -90 0 -90 -280 0 c-180 0 -280
4 -280 10 0 6 -33 10 -80 10 -47 0 -80 -4 -80 -10 0 -5 -25 -10 -55 -10 -30 0
-55 5 -55 10 0 6 7 10 15 10 8 0 15 7 15 15 0 8 -7 15 -15 15 -8 0 -15 7 -15
15 0 8 -4 15 -10 15 -5 0 -10 -7 -10 -15 0 -8 -7 -15 -15 -15 -8 0 -15 -7 -15
-15 0 -8 7 -15 15 -15 8 0 15 -4 15 -10 0 -5 -7 -10 -15 -10 -13 0 -15 -24
-17 -152 l-1 -153 -8 140 c-3 77 -7 157 -8 178 -1 23 -5 36 -11 32 -6 -4 -10
-61 -10 -137 0 -72 -2 -129 -4 -127 -2 2 -6 105 -9 229 -12 536 -20 805 -24
810 -2 2 -2 -916 0 -2040 3 -2246 0 -2105 63 -2390 65 -290 199 -571 372 -780
305 -369 767 -614 1264 -669 134 -15 4409 -15 4546 0 342 37 655 146 913 318
384 257 636 621 749 1083 67 274 63 124 65 2453 0 1161 -1 1875 -2 1588 -2
-326 -7 -523 -13 -523 -5 0 -11 -53 -13 -122 -2 -116 -3 -114 -5 40 -1 90 -6
162 -11 162 -5 0 -13 15 -17 33 -6 28 -8 29 -15 12 l-8 -20 -1 20 -1 20 -9
-20 -9 -20 -1 20 -1 20 -9 -20 c-10 -23 -9 -27 -15 99 -2 49 -7 91 -11 95 -3
3 -5 -16 -4 -44 4 -84 4 -85 -35 -85 -31 0 -35 3 -35 25 0 23 -4 25 -40 25
l-40 0 0 -40 0 -40 -80 0 c-47 0 -80 -4 -80 -10 0 -6 -87 -10 -240 -10 l-240
0 0 90 0 90 -160 0 -160 0 0 -90 0 -90 -40 0 c-28 0 -40 -4 -40 -14 0 -9 -15
-15 -45 -18 -42 -3 -45 -1 -51 25 -7 31 -24 27 -24 -7 0 -12 -4 -26 -9 -32 -6
-5 -12 -27 -14 -49 -2 -22 -3 -14 -2 18 3 61 0 70 -15 35 -6 -17 -9 0 -11 62
-2 83 -2 84 -9 30 -4 -30 -11 -730 -14 -1555 -4 -890 -11 -1520 -17 -1549 -15
-76 -66 -161 -133 -222 -69 -63 -137 -98 -220 -113 -42 -8 -659 -11 -2075 -11
-2145 0 -2086 -1 -2188 46 -108 50 -205 160 -244 279 -11 33 -15 413 -19 2050
-3 1106 -6 1922 -8 1813z m-75 -765 c-2 -16 -4 -3 -4 27 0 30 2 43 4 28 2 -16
2 -40 0 -55z m5493 -13 c0 -6 -33 -10 -80 -10 -47 0 -80 4 -80 10 0 6 33 10
80 10 47 0 80 -4 80 -10z m240 -80 c0 -5 -18 -10 -40 -10 -22 0 -40 5 -40 10
0 6 18 10 40 10 22 0 40 -4 40 -10z m-723 -382 c-1 -46 -3 -9 -3 82 0 91 2
128 3 83 2 -46 2 -120 0 -165z"/>
<path d="M6410 7081 c0 -5 5 -13 10 -16 6 -3 10 -2 10 4 0 5 -4 13 -10 16 -5
3 -10 2 -10 -4z"/>
<path d="M1160 6280 c0 -22 5 -40 10 -40 6 0 10 18 10 40 0 22 -4 40 -10 40
-5 0 -10 -18 -10 -40z"/>
<path d="M3225 6290 c-31 -12 -62 -50 -86 -105 -30 -68 -30 -116 1 -157 l25
-33 -4 -1207 -3 -1207 -24 -47 c-28 -56 -29 -75 -8 -138 42 -124 166 -162 262
-81 l30 25 1427 0 1426 0 46 -35 c26 -20 57 -38 71 -42 47 -11 137 5 219 41
45 19 99 38 120 41 21 3 52 8 70 11 51 8 93 49 93 91 0 47 -15 72 -55 89 -19
7 -138 24 -265 36 -219 20 -234 20 -284 5 -48 -16 -176 -17 -1459 -17 l-1406
0 -15 22 c-14 20 -16 152 -16 1221 l0 1199 26 31 c32 38 29 75 -12 162 -43 88
-110 124 -179 95z"/>
<path d="M9023 6200 c0 -25 2 -35 4 -22 2 12 2 32 0 45 -2 12 -4 2 -4 -23z"/>
<path d="M8983 6195 c0 -22 2 -30 4 -17 2 12 2 30 0 40 -3 9 -5 -1 -4 -23z"/>
<path d="M9003 6195 c0 -22 2 -30 4 -17 2 12 2 30 0 40 -3 9 -5 -1 -4 -23z"/>
<path d="M5217 5579 c-39 -21 -81 -76 -92 -121 -6 -22 -16 -30 -58 -42 -282
-79 -1112 -304 -1149 -311 -31 -6 -42 -2 -81 28 -58 44 -109 54 -179 33 -60
-17 -99 -52 -122 -108 -60 -142 65 -293 218 -264 71 13 140 84 155 161 8 34
-40 18 481 160 195 54 442 121 548 151 l193 53 42 -43 c43 -45 92 -66 154 -66
27 0 38 -9 83 -70 78 -106 130 -184 130 -197 0 -6 -13 -23 -30 -36 -16 -14
-30 -30 -30 -36 0 -6 -4 -11 -8 -11 -5 0 -55 -41 -112 -90 -57 -50 -114 -93
-126 -96 -15 -4 -45 6 -85 26 -34 17 -68 29 -76 26 -8 -3 -12 -2 -8 3 4 8 -70
51 -89 51 -4 0 -15 7 -23 16 -9 8 -24 13 -35 11 -10 -3 -15 -1 -12 4 3 5 -3
12 -13 16 -10 3 -30 15 -45 25 -16 11 -33 16 -39 12 -8 -4 -9 -3 -5 4 9 15 -7
15 -22 0 -9 -9 -8 -14 4 -23 13 -9 13 -11 -5 -11 -11 0 -17 4 -15 8 3 4 3 8
-1 8 -6 0 -305 -264 -440 -389 -119 -111 -183 -161 -205 -161 -10 0 -62 25
-116 55 -54 31 -104 53 -111 50 -8 -2 -11 0 -8 5 14 23 -15 5 -97 -58 -84 -65
-132 -102 -149 -112 -14 -9 -13 -458 1 -475 11 -13 197 -15 1614 -15 880 0
1606 4 1613 8 14 9 21 618 7 632 -10 10 -107 67 -171 101 -53 28 -48 37 7 15
22 -9 41 -16 43 -16 5 0 1 69 -5 75 -4 4 -4 13 -1 21 3 8 -8 21 -26 32 -17 10
-28 22 -23 27 4 4 -4 4 -18 1 -17 -5 -21 -4 -12 2 11 7 7 14 -15 31 -15 11
-34 26 -42 33 -8 6 -23 12 -35 13 -15 2 -20 8 -18 21 2 10 1 16 -2 13 -4 -3
-22 9 -41 27 -23 22 -41 31 -52 27 -11 -4 -14 -2 -9 5 9 15 -54 73 -72 67 -7
-3 -11 -1 -8 4 3 5 -11 22 -32 39 -165 137 -184 150 -166 120 4 -8 3 -10 -2
-5 -5 5 -9 12 -9 16 0 14 -64 63 -74 57 -5 -4 -13 -1 -17 5 -5 8 -3 9 7 4 25
-15 -34 40 -90 83 l-53 42 -102 -92 c-55 -50 -119 -109 -142 -131 l-41 -38
-36 48 c-19 26 -56 75 -82 108 -25 33 -55 76 -65 96 -19 35 -19 37 -1 53 21
19 41 80 41 125 0 37 -23 97 -48 124 -52 57 -171 75 -245 36z m665 -421 c-7
-7 -12 -8 -12 -2 0 14 12 26 19 19 2 -3 -1 -11 -7 -17z m-37 -28 c-27 -12 -43
-12 -25 0 8 5 22 9 30 9 10 0 8 -3 -5 -9z m324 -181 c48 -17 32 -20 -19 -4
-25 7 -38 14 -29 14 9 1 30 -4 48 -10z m131 -159 c0 -5 -2 -10 -4 -10 -3 0 -8
5 -11 10 -3 6 -1 10 4 10 6 0 11 -4 11 -10z m240 -200 c8 -5 11 -10 5 -10 -5
0 -17 5 -25 10 -8 5 -10 10 -5 10 6 0 17 -5 25 -10z m79 -41 c17 -6 31 -15 31
-20 0 -5 -15 -2 -32 7 -53 27 -53 32 1 13z"/>
</g>
</svg>
